<svg version="1.1" id="Layer_1" xmlns="http://www.w3.org/2000/svg" xmlns:xlink="http://www.w3.org/1999/xlink" x="0px" y="0px" width="1254" viewBox="0 0 1254 1254" enable-background="new 0 0 1254 1254" xml:space="preserve" height="1254">
<path fill="#010101" opacity="1.000000" stroke="none" d="
M1255.000000,211.000000
	C1255.000000,488.029388 1255.000000,765.058777 1254.635742,1042.760620
	C1253.310425,1051.519043 1252.792603,1059.686890 1251.315918,1067.677490
	C1242.166504,1117.187622 1219.067993,1159.149536 1182.456787,1193.681396
	C1148.258667,1225.937012 1107.663696,1244.983643 1061.357056,1252.165649
	C1054.587646,1253.215698 1047.786499,1254.060303 1041.000000,1255.000000
	C765.970642,1255.000000 490.941254,1255.000000 215.292343,1254.621338
	C211.869263,1253.891846 209.070038,1253.501343 206.261597,1253.195557
	C144.223099,1246.439575 93.268013,1218.929565 53.481274,1170.985718
	C26.418760,1138.374878 10.132527,1100.808838 3.794697,1058.925903
	C2.791265,1052.294800 1.928051,1045.642456 1.000005,1039.000000
	C1.000000,764.303955 1.000000,489.607941 1.384183,214.291809
	C2.683647,205.911987 3.118373,198.059662 4.592212,190.407501
	C14.144384,140.812714 36.428841,97.993797 73.498810,63.346848
	C112.115379,27.254374 157.669891,6.457622 210.540665,2.139150
	C212.048065,2.016026 213.514481,1.391000 215.000000,1.000001
	C490.696045,1.000000 766.392090,1.000000 1042.730469,1.385019
	C1053.263672,3.003842 1063.292480,3.571735 1073.021606,5.586265
	C1116.052734,14.496253 1153.691772,33.875278 1185.258179,64.678360
	C1221.249023,99.798790 1243.696411,142.046097 1252.067993,191.687012
	C1253.150757,198.106918 1254.027710,204.561493 1255.000000,211.000000
M769.100647,751.748291
	C776.570618,726.857849 776.501465,701.184448 776.486084,675.086426
	C779.000122,675.730530 780.936462,676.130981 782.812805,676.721985
	C806.828125,684.285889 828.602661,695.894836 846.529724,713.753784
	C868.120605,735.262573 879.539795,761.185547 879.423218,792.051025
	C879.224854,844.544678 879.370667,897.039551 879.371887,949.533936
	C879.372009,953.324585 879.371887,957.115234 879.371887,961.390076
	C877.077637,961.390076 875.286621,961.390625 873.495605,961.389954
	C855.331238,961.383118 837.165955,961.476501 819.002869,961.322144
	C811.136047,961.255249 804.877258,963.798950 801.411133,971.134216
	C798.121704,978.095459 799.944336,984.986633 806.354858,991.491394
	C815.828796,1001.104553 825.271912,1010.748840 834.818481,1020.289551
	C860.984070,1046.439331 887.169983,1072.568970 913.410461,1098.643555
	C919.715454,1104.908691 929.704590,1104.855957 935.858337,1098.733276
	C972.237244,1062.538208 1008.604431,1026.331299 1044.970337,990.123169
	C1049.884888,985.229919 1051.369385,977.648010 1048.720093,971.197327
	C1046.215942,965.099854 1040.449585,961.412964 1033.278198,961.404602
	C1015.113708,961.383484 996.949219,961.390015 978.784729,961.385620
	C976.992188,961.385193 975.199646,961.385620 972.967957,961.385620
	C972.967957,959.679993 972.967896,958.394592 972.967896,957.109192
	C972.969360,898.782043 972.969727,840.454895 972.972656,782.127747
	C972.974854,737.879883 958.552917,698.699219 930.552429,664.713745
	C897.824219,624.990173 855.175964,600.495239 806.297546,586.157837
	C796.306335,583.227112 786.085510,581.079163 776.469910,578.694275
	C774.552551,564.701355 773.133423,550.941406 770.712830,537.359863
	C764.989868,505.248779 751.476562,476.664948 728.722961,453.199799
	C691.454163,414.765594 645.945801,398.332855 592.718994,406.157379
	C544.987122,413.174103 508.701019,438.546265 481.681366,478.505737
	C490.655212,484.341827 499.385651,490.019653 508.259674,495.790833
	C510.650177,492.598206 512.723328,489.582642 515.042175,486.769592
	C547.976929,446.814850 590.238953,429.447144 641.012512,439.914703
	C693.789795,450.795258 725.186890,485.748444 738.580139,537.170959
	C741.691772,549.117798 742.799866,561.586487 744.935913,574.454102
	C734.674133,573.616455 725.769165,572.889587 716.731323,572.151855
	C715.848816,566.009827 715.189575,560.069946 714.118774,554.205200
	C709.733826,530.188477 700.312500,508.634369 682.224060,491.657349
	C656.919006,467.907135 626.831238,460.893188 593.387634,467.818451
	C566.878479,473.307800 546.521484,488.292847 530.932556,510.762604
	C539.807068,516.541565 548.428223,522.155579 557.439087,528.023376
	C567.031616,514.332092 579.436096,504.757507 595.454956,500.194061
	C611.623230,495.587952 627.533691,496.227814 642.774780,503.375916
	C667.175415,514.819885 686.397705,546.449463 684.123047,570.909851
	C678.666077,570.909851 673.180847,570.796204 667.701599,570.929321
	C642.561646,571.540161 617.358826,571.321960 592.302551,573.124756
	C566.629761,574.971924 541.688232,580.942261 518.502747,592.853577
	C457.662323,624.109924 432.259064,684.977295 445.509979,748.732483
	C456.003418,799.220581 488.099884,832.388000 533.959534,852.955261
	C567.730652,868.101013 603.561096,871.260742 639.664795,864.921936
	C704.935181,853.462524 748.811646,816.430542 769.100647,751.748291
M889.209961,307.294128
	C928.810486,356.237122 953.709534,411.848511 964.257202,473.993713
	C975.452820,471.849365 986.159485,469.798645 996.825623,467.755676
	C996.825623,466.728455 996.872131,466.229340 996.815918,465.742096
	C996.701660,464.751221 996.549072,463.763824 996.382446,462.780029
	C988.573669,416.657898 972.770325,373.484802 949.084961,333.120697
	C919.746094,283.122162 881.076782,241.970108 832.815247,209.921234
	C779.972656,174.830231 721.750244,155.305954 658.527039,150.688171
	C583.016724,145.172897 511.538269,159.674026 445.217102,196.231934
	C373.935883,235.523941 320.481781,292.605164 282.856934,364.602814
	C250.157303,427.175812 233.232101,494.269867 227.314514,564.228760
	C222.408081,622.233582 224.489716,680.058655 234.989532,737.460693
	C246.847946,802.290405 268.367920,863.370850 304.511871,918.903076
	C347.053040,984.264038 402.996857,1034.506104 473.509460,1067.987061
	C537.286377,1098.269775 604.669800,1108.917847 674.827942,1102.773560
	C700.442139,1100.530396 725.539124,1095.437256 750.188599,1088.175903
	C751.736694,1087.719971 754.043457,1086.023438 754.078735,1084.846436
	C754.386536,1074.580322 754.256531,1064.301025 754.256531,1053.599609
	C751.545532,1054.283447 749.448547,1054.739136 747.394592,1055.341553
	C720.794189,1063.144653 693.702576,1068.175049 666.042603,1070.302490
	C604.855408,1075.009033 546.201050,1065.032593 490.461975,1039.403564
	C422.429962,1008.122253 369.150879,959.821594 329.429169,896.612305
	C292.365326,837.632385 272.215698,772.643311 263.114319,703.990112
	C256.781494,656.220398 256.090576,608.303040 261.059662,560.364258
	C266.218170,510.598114 276.932312,462.161621 296.074219,415.736267
	C325.957245,343.260071 371.961914,283.859497 437.702728,240.413879
	C480.156464,212.357803 526.722412,195.089462 577.052551,187.834717
	C611.263672,182.903381 645.488220,182.956375 679.643188,188.044083
	C717.958984,193.751587 754.476624,205.155609 788.585815,223.786346
	C827.344971,244.956970 860.773865,272.565155 889.209961,307.294128
M411.065094,298.563049
	C402.495850,307.423889 393.456421,315.880768 385.437622,325.214539
	C347.990936,368.801880 322.923920,419.034576 307.492950,474.111877
	C285.526367,552.516479 282.365051,632.146667 294.262817,712.409851
	C303.169403,772.494385 321.435364,829.503357 353.814911,881.387146
	C393.291809,944.643555 447.177704,991.302673 516.324463,1019.368896
	C577.182861,1044.070923 640.281006,1049.036133 704.666382,1036.486938
	C721.275818,1033.249634 737.626770,1028.686035 753.968872,1024.762329
	C753.968872,1011.789978 753.968872,999.869080 753.968872,987.504761
	C751.670471,988.199219 749.766663,988.707520 747.907654,989.346191
	C723.579773,997.704102 698.699341,1003.524292 673.088623,1006.317566
	C623.315796,1011.746460 574.867798,1006.385864 528.504456,987.256714
	C447.045471,953.647644 390.599548,894.791565 356.802124,813.893921
	C333.729614,758.667419 322.955811,700.799194 321.215607,641.125183
	C318.823975,559.113464 332.702454,480.509125 371.143097,407.282471
	C393.471893,364.747681 423.640411,328.637848 463.149567,300.975494
	C520.106628,261.097076 583.436462,244.306992 652.679382,250.987778
	C714.257874,256.929077 768.583862,279.803925 814.235291,322.115143
	C851.825684,356.955170 878.049866,398.987244 893.154114,447.905640
	C896.915588,460.087830 899.796143,472.541962 903.194031,485.293152
	C913.936584,483.237488 924.803528,481.158020 935.804199,479.052979
	C932.516235,459.487335 927.778015,440.982758 921.122314,422.964294
	C899.526184,364.498444 865.064148,315.046936 815.258972,277.483337
	C740.131226,220.821182 655.315918,203.555038 563.466370,220.719818
	C505.483124,231.555634 455.005798,258.145081 411.065094,298.563049
z"></path>
<path fill="#FDFDFD" opacity="1.000000" stroke="none" d="
M1.000005,1039.468628
	C1.928051,1045.642456 2.791265,1052.294800 3.794697,1058.925903
	C10.132527,1100.808838 26.418760,1138.374878 53.481274,1170.985718
	C93.268013,1218.929565 144.223099,1246.439575 206.261597,1253.195557
	C209.070038,1253.501343 211.869263,1253.891846 214.836395,1254.621338
	C143.739288,1255.000000 72.478577,1255.000000 1.000000,1255.000000
	C1.000000,1183.312622 1.000000,1111.624878 1.000005,1039.468628
z"></path>
<path fill="#FDFDFD" opacity="1.000000" stroke="none" d="
M214.531342,1.000001
	C213.514481,1.391000 212.048065,2.016026 210.540665,2.139150
	C157.669891,6.457622 112.115379,27.254374 73.498810,63.346848
	C36.428841,97.993797 14.144384,140.812714 4.592212,190.407501
	C3.118373,198.059662 2.683647,205.911987 1.384183,213.835876
	C1.000000,143.072784 1.000000,72.145576 1.000000,1.000000
	C72.020744,1.000000 143.041718,1.000000 214.531342,1.000001
z"></path>
<path fill="#FDFDFD" opacity="1.000000" stroke="none" d="
M1041.468628,1255.000000
	C1047.786499,1254.060303 1054.587646,1253.215698 1061.357056,1252.165649
	C1107.663696,1244.983643 1148.258667,1225.937012 1182.456787,1193.681396
	C1219.067993,1159.149536 1242.166504,1117.187622 1251.315918,1067.677490
	C1252.792603,1059.686890 1253.310425,1051.519043 1254.635742,1043.216553
	C1255.000000,1113.593994 1255.000000,1184.188110 1255.000000,1255.000000
	C1183.979248,1255.000000 1112.958252,1255.000000 1041.468628,1255.000000
z"></path>
<path fill="#FDFDFD" opacity="1.000000" stroke="none" d="
M1255.000000,210.531342
	C1254.027710,204.561493 1253.150757,198.106918 1252.067993,191.687012
	C1243.696411,142.046097 1221.249023,99.798790 1185.258179,64.678360
	C1153.691772,33.875278 1116.052734,14.496253 1073.021606,5.586265
	C1063.292480,3.571735 1053.263672,3.003842 1043.186401,1.385019
	C1113.593384,1.000000 1184.186646,1.000000 1255.000000,1.000000
	C1255.000000,70.687408 1255.000000,140.375046 1255.000000,210.531342
z"></path>
<path fill="#FAFAFA" opacity="1.000000" stroke="none" d="
M768.997070,752.138245
	C748.811646,816.430542 704.935181,853.462524 639.664795,864.921936
	C603.561096,871.260742 567.730652,868.101013 533.959534,852.955261
	C488.099884,832.388000 456.003418,799.220581 445.509979,748.732483
	C432.259064,684.977295 457.662323,624.109924 518.502747,592.853577
	C541.688232,580.942261 566.629761,574.971924 592.302551,573.124756
	C617.358826,571.321960 642.561646,571.540161 667.701599,570.929321
	C673.180847,570.796204 678.666077,570.909851 684.123047,570.909851
	C686.397705,546.449463 667.175415,514.819885 642.774780,503.375916
	C627.533691,496.227814 611.623230,495.587952 595.454956,500.194061
	C579.436096,504.757507 567.031616,514.332092 557.439087,528.023376
	C548.428223,522.155579 539.807068,516.541565 530.932556,510.762604
	C546.521484,488.292847 566.878479,473.307800 593.387634,467.818451
	C626.831238,460.893188 656.919006,467.907135 682.224060,491.657349
	C700.312500,508.634369 709.733826,530.188477 714.118774,554.205200
	C715.189575,560.069946 715.848816,566.009827 716.731323,572.151855
	C725.769165,572.889587 734.674133,573.616455 744.935913,574.454102
	C742.799866,561.586487 741.691772,549.117798 738.580139,537.170959
	C725.186890,485.748444 693.789795,450.795258 641.012512,439.914703
	C590.238953,429.447144 547.976929,446.814850 515.042175,486.769592
	C512.723328,489.582642 510.650177,492.598206 508.259674,495.790833
	C499.385651,490.019653 490.655212,484.341827 481.681366,478.505737
	C508.701019,438.546265 544.987122,413.174103 592.718994,406.157379
	C645.945801,398.332855 691.454163,414.765594 728.722961,453.199799
	C751.476562,476.664948 764.989868,505.248779 770.712830,537.359863
	C773.133423,550.941406 774.552551,564.701355 776.469910,578.694275
	C786.085510,581.079163 796.306335,583.227112 806.297546,586.157837
	C855.175964,600.495239 897.824219,624.990173 930.552429,664.713745
	C958.552917,698.699219 972.974854,737.879883 972.972656,782.127747
	C972.969727,840.454895 972.969360,898.782043 972.967896,957.109192
	C972.967896,958.394592 972.967957,959.679993 972.967957,961.385620
	C975.199646,961.385620 976.992188,961.385193 978.784729,961.385620
	C996.949219,961.390015 1015.113708,961.383484 1033.278198,961.404602
	C1040.449585,961.412964 1046.215942,965.099854 1048.720093,971.197327
	C1051.369385,977.648010 1049.884888,985.229919 1044.970337,990.123169
	C1008.604431,1026.331299 972.237244,1062.538208 935.858337,1098.733276
	C929.704590,1104.855957 919.715454,1104.908691 913.410461,1098.643555
	C887.169983,1072.568970 860.984070,1046.439331 834.818481,1020.289551
	C825.271912,1010.748840 815.828796,1001.104553 806.354858,991.491394
	C799.944336,984.986633 798.121704,978.095459 801.411133,971.134216
	C804.877258,963.798950 811.136047,961.255249 819.002869,961.322144
	C837.165955,961.476501 855.331238,961.383118 873.495605,961.389954
	C875.286621,961.390625 877.077637,961.390076 879.371887,961.390076
	C879.371887,957.115234 879.372009,953.324585 879.371887,949.533936
	C879.370667,897.039551 879.224854,844.544678 879.423218,792.051025
	C879.539795,761.185547 868.120605,735.262573 846.529724,713.753784
	C828.602661,695.894836 806.828125,684.285889 782.812805,676.721985
	C780.936462,676.130981 779.000122,675.730530 776.486084,675.086426
	C776.501465,701.184448 776.570618,726.857849 768.997070,752.138245
M670.214539,822.768677
	C706.678894,805.481201 730.764709,777.960999 740.553650,738.360474
	C746.221069,715.432983 745.589417,692.184326 745.421692,668.515442
	C736.263794,667.453857 727.462585,666.433655 718.128357,665.351624
	C718.128357,668.089050 718.167480,670.061035 718.122070,672.031128
	C717.811523,685.518066 718.037231,699.044983 717.058594,712.483887
	C713.925720,755.503845 688.912170,788.283264 648.555176,801.240479
	C617.674194,811.155273 586.589722,809.930664 556.679260,797.395264
	C530.669006,786.494446 512.009338,767.851562 504.813812,739.771973
	C494.134674,698.097900 512.244568,660.050781 551.815796,643.834106
	C569.950928,636.402161 588.933533,632.940979 608.242981,632.058167
	C659.063232,629.734863 709.855408,629.698486 760.276245,638.077393
	C795.307556,643.898865 827.689880,656.099060 855.888062,678.194885
	C892.492065,706.877441 912.117920,743.957153 912.002686,791.002197
	C911.842285,856.494507 911.933350,921.987366 911.916870,987.479980
	C911.916443,989.263245 911.916809,991.046509 911.916809,993.386353
	C892.188171,993.386353 872.978455,993.386353 853.334839,993.386353
	C877.573181,1017.594421 901.306335,1041.297974 924.595215,1064.557739
	C948.233643,1040.953491 972.032104,1017.189270 996.023132,993.232788
	C977.698730,993.232788 959.298767,993.232788 940.371643,993.232788
	C940.371643,990.649658 940.370667,988.518005 940.371704,986.386353
	C940.403931,919.727234 940.436462,853.068054 940.468933,786.408936
	C940.479309,765.144287 936.715942,744.588867 928.123657,725.108215
	C909.870911,683.725281 879.070312,654.428894 839.336853,633.918945
	C806.565063,617.002625 771.220215,609.608521 734.888916,605.998840
	C698.333679,602.366882 661.665405,602.649353 625.009583,603.300659
	C600.815002,603.730530 576.621826,605.476318 553.545044,613.307861
	C508.834839,628.481262 479.615631,657.515442 474.708252,706.339539
	C471.046936,742.765930 481.960724,774.931580 509.730530,798.938416
	C557.476562,840.214539 611.690247,845.150696 670.214539,822.768677
M676.301331,740.755188
	C679.269165,732.514038 683.956177,724.453003 684.842712,715.993713
	C686.622742,699.008850 686.330811,681.806580 686.862976,664.693115
	C686.870789,664.442688 686.477966,664.179749 685.419617,662.858154
	C659.128540,663.355530 631.955872,663.044189 604.908752,664.737427
	C591.833252,665.555908 578.703247,669.231201 566.119568,673.247314
	C549.909973,678.420654 538.644104,689.556641 534.947937,706.694397
	C529.577576,731.594421 541.060364,754.348145 565.201904,765.729248
	C589.952942,777.397705 615.695801,778.333618 641.538513,769.617004
	C656.382874,764.610229 667.908936,754.980652 676.301331,740.755188
z"></path>
<path fill="#FBFBFB" opacity="1.000000" stroke="none" d="
M888.978210,307.026306
	C860.773865,272.565155 827.344971,244.956970 788.585815,223.786346
	C754.476624,205.155609 717.958984,193.751587 679.643188,188.044083
	C645.488220,182.956375 611.263672,182.903381 577.052551,187.834717
	C526.722412,195.089462 480.156464,212.357803 437.702728,240.413879
	C371.961914,283.859497 325.957245,343.260071 296.074219,415.736267
	C276.932312,462.161621 266.218170,510.598114 261.059662,560.364258
	C256.090576,608.303040 256.781494,656.220398 263.114319,703.990112
	C272.215698,772.643311 292.365326,837.632385 329.429169,896.612305
	C369.150879,959.821594 422.429962,1008.122253 490.461975,1039.403564
	C546.201050,1065.032593 604.855408,1075.009033 666.042603,1070.302490
	C693.702576,1068.175049 720.794189,1063.144653 747.394592,1055.341553
	C749.448547,1054.739136 751.545532,1054.283447 754.256531,1053.599609
	C754.256531,1064.301025 754.386536,1074.580322 754.078735,1084.846436
	C754.043457,1086.023438 751.736694,1087.719971 750.188599,1088.175903
	C725.539124,1095.437256 700.442139,1100.530396 674.827942,1102.773560
	C604.669800,1108.917847 537.286377,1098.269775 473.509460,1067.987061
	C402.996857,1034.506104 347.053040,984.264038 304.511871,918.903076
	C268.367920,863.370850 246.847946,802.290405 234.989532,737.460693
	C224.489716,680.058655 222.408081,622.233582 227.314514,564.228760
	C233.232101,494.269867 250.157303,427.175812 282.856934,364.602814
	C320.481781,292.605164 373.935883,235.523941 445.217102,196.231934
	C511.538269,159.674026 583.016724,145.172897 658.527039,150.688171
	C721.750244,155.305954 779.972656,174.830231 832.815247,209.921234
	C881.076782,241.970108 919.746094,283.122162 949.084961,333.120697
	C972.770325,373.484802 988.573669,416.657898 996.382446,462.780029
	C996.549072,463.763824 996.701660,464.751221 996.815918,465.742096
	C996.872131,466.229340 996.825623,466.728455 996.825623,467.755676
	C986.159485,469.798645 975.452820,471.849365 964.257202,473.993713
	C953.709534,411.848511 928.810486,356.237122 888.978210,307.026306
z"></path>
<path fill="#FBFAFB" opacity="1.000000" stroke="none" d="
M411.328308,298.327332
	C455.005798,258.145081 505.483124,231.555634 563.466370,220.719818
	C655.315918,203.555038 740.131226,220.821182 815.258972,277.483337
	C865.064148,315.046936 899.526184,364.498444 921.122314,422.964294
	C927.778015,440.982758 932.516235,459.487335 935.804199,479.052979
	C924.803528,481.158020 913.936584,483.237488 903.194031,485.293152
	C899.796143,472.541962 896.915588,460.087830 893.154114,447.905640
	C878.049866,398.987244 851.825684,356.955170 814.235291,322.115143
	C768.583862,279.803925 714.257874,256.929077 652.679382,250.987778
	C583.436462,244.306992 520.106628,261.097076 463.149567,300.975494
	C423.640411,328.637848 393.471893,364.747681 371.143097,407.282471
	C332.702454,480.509125 318.823975,559.113464 321.215607,641.125183
	C322.955811,700.799194 333.729614,758.667419 356.802124,813.893921
	C390.599548,894.791565 447.045471,953.647644 528.504456,987.256714
	C574.867798,1006.385864 623.315796,1011.746460 673.088623,1006.317566
	C698.699341,1003.524292 723.579773,997.704102 747.907654,989.346191
	C749.766663,988.707520 751.670471,988.199219 753.968872,987.504761
	C753.968872,999.869080 753.968872,1011.789978 753.968872,1024.762329
	C737.626770,1028.686035 721.275818,1033.249634 704.666382,1036.486938
	C640.281006,1049.036133 577.182861,1044.070923 516.324463,1019.368896
	C447.177704,991.302673 393.291809,944.643555 353.814911,881.387146
	C321.435364,829.503357 303.169403,772.494385 294.262817,712.409851
	C282.365051,632.146667 285.526367,552.516479 307.492950,474.111877
	C322.923920,419.034576 347.990936,368.801880 385.437622,325.214539
	C393.456421,315.880768 402.495850,307.423889 411.328308,298.327332
z"></path>
<path fill="#040404" opacity="1.000000" stroke="none" d="
M669.855896,822.892944
	C611.690247,845.150696 557.476562,840.214539 509.730530,798.938416
	C481.960724,774.931580 471.046936,742.765930 474.708252,706.339539
	C479.615631,657.515442 508.834839,628.481262 553.545044,613.307861
	C576.621826,605.476318 600.815002,603.730530 625.009583,603.300659
	C661.665405,602.649353 698.333679,602.366882 734.888916,605.998840
	C771.220215,609.608521 806.565063,617.002625 839.336853,633.918945
	C879.070312,654.428894 909.870911,683.725281 928.123657,725.108215
	C936.715942,744.588867 940.479309,765.144287 940.468933,786.408936
	C940.436462,853.068054 940.403931,919.727234 940.371704,986.386353
	C940.370667,988.518005 940.371643,990.649658 940.371643,993.232788
	C959.298767,993.232788 977.698730,993.232788 996.023132,993.232788
	C972.032104,1017.189270 948.233643,1040.953491 924.595215,1064.557739
	C901.306335,1041.297974 877.573181,1017.594421 853.334839,993.386353
	C872.978455,993.386353 892.188171,993.386353 911.916809,993.386353
	C911.916809,991.046509 911.916443,989.263245 911.916870,987.479980
	C911.933350,921.987366 911.842285,856.494507 912.002686,791.002197
	C912.117920,743.957153 892.492065,706.877441 855.888062,678.194885
	C827.689880,656.099060 795.307556,643.898865 760.276245,638.077393
	C709.855408,629.698486 659.063232,629.734863 608.242981,632.058167
	C588.933533,632.940979 569.950928,636.402161 551.815796,643.834106
	C512.244568,660.050781 494.134674,698.097900 504.813812,739.771973
	C512.009338,767.851562 530.669006,786.494446 556.679260,797.395264
	C586.589722,809.930664 617.674194,811.155273 648.555176,801.240479
	C688.912170,788.283264 713.925720,755.503845 717.058594,712.483887
	C718.037231,699.044983 717.811523,685.518066 718.122070,672.031128
	C718.167480,670.061035 718.128357,668.089050 718.128357,665.351624
	C727.462585,666.433655 736.263794,667.453857 745.421692,668.515442
	C745.589417,692.184326 746.221069,715.432983 740.553650,738.360474
	C730.764709,777.960999 706.678894,805.481201 669.855896,822.892944
z"></path>
<path fill="#020202" opacity="1.000000" stroke="none" d="
M676.136475,741.081726
	C667.908936,754.980652 656.382874,764.610229 641.538513,769.617004
	C615.695801,778.333618 589.952942,777.397705 565.201904,765.729248
	C541.060364,754.348145 529.577576,731.594421 534.947937,706.694397
	C538.644104,689.556641 549.909973,678.420654 566.119568,673.247314
	C578.703247,669.231201 591.833252,665.555908 604.908752,664.737427
	C631.955872,663.044189 659.128540,663.355530 685.419617,662.858154
	C686.477966,664.179749 686.870789,664.442688 686.862976,664.693115
	C686.330811,681.806580 686.622742,699.008850 684.842712,715.993713
	C683.956177,724.453003 679.269165,732.514038 676.136475,741.081726
z"></path>
</svg>